<?xml version="1.0" encoding="UTF-8"?>
<svg version="1.1" xmlns="http://www.w3.org/2000/svg" width="1667" height="1667">
<path d="M0 0 C2.0807087 0.00084762 4.16141829 0.0003685 6.24212646 -0.00132751 C11.85489389 -0.00218362 17.46746658 0.01537957 23.08018899 0.03639436 C28.95914472 0.05522562 34.83810556 0.05691667 40.71708679 0.06047058 C51.83376876 0.06977216 62.95036157 0.09436031 74.06700438 0.12451905 C89.10022545 0.16441263 104.13347113 0.18053319 119.16673183 0.1980257 C142.82956435 0.22618281 166.49220879 0.285965 190.1550293 0.34057617 C190.1550293 42.58057617 190.1550293 84.82057617 190.1550293 128.34057617 C252.5250293 128.34057617 314.8950293 128.34057617 379.1550293 128.34057617 C379.1550293 199.62057617 379.1550293 270.90057617 379.1550293 344.34057617 C408.1950293 344.34057617 437.2350293 344.34057617 467.1550293 344.34057617 C485.77326292 348.99513458 485.77326292 348.99513458 491.5300293 352.09057617 C492.18938477 352.4334668 492.84874023 352.77635742 493.52807617 353.12963867 C499.29530983 356.22507848 504.32361841 359.91979153 509.1550293 364.34057617 C509.83694336 364.9309668 510.51885742 365.52135742 511.22143555 366.12963867 C524.06460808 377.9423414 533.09657239 396.44126274 534.41900635 413.80703735 C534.49928334 417.56652711 534.49298225 421.31488653 534.44799805 425.07495117 C534.44238576 426.44785086 534.43812341 427.82075665 534.43513489 429.19366455 C534.42381419 432.76441762 534.3944616 436.33479024 534.36102295 439.90539551 C534.33004223 443.56602841 534.31657045 447.22672427 534.30151367 450.88745117 C534.26957596 458.03864617 534.21853968 465.18958601 534.1550293 472.34057617 C534.76903595 472.336889 535.3830426 472.33320183 536.01565552 472.32940292 C551.02590202 472.24067458 566.03606684 472.17468452 581.04650879 472.13332748 C588.30576049 472.11279073 595.56483605 472.08484263 602.82397461 472.03881836 C609.15851536 471.9986757 615.49292842 471.97307897 621.82759285 471.96422219 C625.17511586 471.95905313 628.52198726 471.94492526 631.8694458 471.91765594 C648.94460144 471.7841869 665.09973954 471.79363348 680.5300293 480.09057617 C681.18938477 480.4334668 681.84874023 480.77635742 682.52807617 481.12963867 C688.29530983 484.22507848 693.32361841 487.91979153 698.1550293 492.34057617 C698.83694336 492.9309668 699.51885742 493.52135742 700.22143555 494.12963867 C709.4514536 502.61908776 716.30876716 514.46489087 720.1550293 526.34057617 C720.40213307 527.07280773 720.64923685 527.80503929 720.90382862 528.55945969 C723.89104255 538.65147798 723.55513752 548.65316195 723.49560547 559.07202148 C723.49468517 561.18607949 723.49508914 563.30013842 723.49670124 565.41419601 C723.49737518 571.04697239 723.48005835 576.67955541 723.45886993 582.31228638 C723.44171423 587.60866874 723.44097673 592.9050054 723.43884277 598.20141602 C723.42313574 613.66449475 723.381252 629.12753794 723.3425293 644.59057617 C723.2806543 679.15807617 723.2187793 713.72557617 723.1550293 749.34057617 C609.6350293 749.34057617 496.1150293 749.34057617 379.1550293 749.34057617 C379.31331682 839.40690829 379.31331682 839.40690829 379.51538086 929.47314453 C379.53344727 946.91589355 379.53344727 946.91589355 379.5368042 955.08863831 C379.54052198 960.78129235 379.55514185 966.47378789 379.57733154 972.16639709 C379.6029312 978.74362188 379.61434106 985.32069559 379.6088091 991.89797047 C379.60641633 995.25715062 379.6122879 998.61572566 379.63188982 1001.97488773 C379.72519789 1018.75251004 379.68587932 1035.56226653 371.4675293 1050.71557617 C371.12794189 1051.3671167 370.78835449 1052.01865723 370.43847656 1052.68994141 C367.09419295 1058.87226037 362.91135936 1064.17481843 358.1550293 1069.34057617 C357.34678711 1070.28610352 357.34678711 1070.28610352 356.5222168 1071.25073242 C345.22790777 1083.70852554 326.57292675 1092.24658255 309.9548471 1093.50752044 C303.77284019 1093.7766841 297.58806335 1093.71682966 291.40185547 1093.68115234 C289.33099886 1093.68030471 287.26014136 1093.68078387 285.18928528 1093.68247986 C279.60337611 1093.68333592 274.01766264 1093.66577343 268.4317987 1093.64475799 C262.58087024 1093.62592601 256.72993664 1093.62423562 250.87898254 1093.62068176 C239.81542432 1093.61138039 228.75195569 1093.58679253 217.68843681 1093.55663329 C202.72696664 1093.51673887 187.76547175 1093.50061899 172.80396175 1093.48312664 C149.25425058 1093.45497001 125.7047284 1093.39518769 102.1550293 1093.34057617 C102.1550293 1051.10057617 102.1550293 1008.86057617 102.1550293 965.34057617 C39.7850293 965.34057617 -22.5849707 965.34057617 -86.8449707 965.34057617 C-86.8449707 894.06057617 -86.8449707 822.78057617 -86.8449707 749.34057617 C-115.5549707 749.34057617 -144.2649707 749.34057617 -173.8449707 749.34057617 C-193.59281553 744.69402445 -193.59281553 744.69402445 -199.2824707 741.59057617 C-199.93731445 741.24768555 -200.5921582 740.90479492 -201.2668457 740.55151367 C-207.00673664 737.44948189 -212.02960926 733.74667543 -216.8449707 729.34057617 C-217.52688477 728.75018555 -218.20879883 728.15979492 -218.91137695 727.55151367 C-231.8907779 715.6135128 -240.82140593 697.3140685 -242.10482788 679.7930603 C-242.18879253 676.0277936 -242.1831739 672.2744488 -242.13793945 668.50854492 C-242.13232536 667.13707449 -242.12806388 665.76559793 -242.12507629 664.39411926 C-242.11376975 660.83159981 -242.08443036 657.26946325 -242.05096436 653.70709229 C-242.01995211 650.05307186 -242.0065053 646.39898791 -241.99145508 642.74487305 C-241.95954254 635.60995336 -241.90852467 628.47529012 -241.8449707 621.34057617 C-242.75686739 621.34610693 -242.75686739 621.34610693 -243.68718624 621.35174942 C-258.5558949 621.44051709 -273.4245776 621.50648673 -288.2934866 621.54782486 C-295.48432944 621.56835277 -302.67499421 621.59628342 -309.86572266 621.64233398 C-316.14130937 621.68250429 -322.41676698 621.70807975 -328.69247872 621.71693015 C-332.00811959 621.72209457 -335.32331042 621.73620046 -338.63885307 621.7634964 C-355.76405132 621.89876436 -372.80686469 622.03181581 -388.2824707 613.59057617 C-389.26473633 613.07624023 -389.26473633 613.07624023 -390.2668457 612.55151367 C-396.00673664 609.44948189 -401.02960926 605.74667543 -405.8449707 601.34057617 C-406.52688477 600.75018555 -407.20879883 600.15979492 -407.91137695 599.55151367 C-421.074747 587.44430443 -430.33841941 568.65791079 -431.11339378 550.79175377 C-431.25078373 545.35972464 -431.21665059 539.92877991 -431.18554688 534.49560547 C-431.18462639 532.38142571 -431.18503087 530.26724503 -431.18664265 528.15306568 C-431.18731605 522.52449259 -431.17001052 516.89611336 -431.14881134 511.26758575 C-431.13164431 505.97342868 -431.13091753 500.6793172 -431.12878418 495.38513184 C-431.1130827 479.93275457 -431.07119894 464.48041288 -431.0324707 449.02807617 C-430.9705957 414.48120117 -430.9087207 379.93432617 -430.8449707 344.34057617 C-317.3249707 344.34057617 -203.8049707 344.34057617 -86.8449707 344.34057617 C-87.00327199 253.90009878 -87.00327199 253.90009878 -87.20532227 163.4597168 C-87.22338867 145.94897461 -87.22338867 145.94897461 -87.22674561 137.74572754 C-87.23046507 132.02886325 -87.2450922 126.31215659 -87.26727295 120.59533691 C-87.29285707 113.99149718 -87.30428603 107.38780781 -87.2987505 100.78391823 C-87.29635584 97.41052695 -87.30224766 94.03773832 -87.32183123 90.66436481 C-87.4146711 73.88580702 -87.21944982 58.04056642 -79.0324707 42.90307617 C-78.68555176 42.23969238 -78.33863281 41.57630859 -77.98120117 40.89282227 C-75.12665317 35.57327892 -71.92546633 30.80729155 -67.8449707 26.34057617 C-67.09473633 25.51041992 -66.34450195 24.68026367 -65.5715332 23.82495117 C-47.30316967 4.57689622 -25.38512265 -0.14569085 0 0 Z " fill="#E59726" transform="translate(677.844970703125,162.659423828125)"/>
<path d="M0 0 C29.7 -0.12375 29.7 -0.12375 60 -0.25 C69.33539062 -0.30462402 69.33539062 -0.30462402 78.859375 -0.36035156 C86.53125 -0.37841797 86.53125 -0.37841797 90.13671875 -0.3817749 C92.62437818 -0.38786799 95.1120267 -0.4018327 97.59960938 -0.42230225 C114.71330912 -0.55593581 130.90880803 -0.56624749 146.375 7.75 C147.03435547 8.09289062 147.69371094 8.43578125 148.37304688 8.7890625 C154.14028053 11.88450231 159.16858911 15.57921535 164 20 C165.02287109 20.88558594 165.02287109 20.88558594 166.06640625 21.7890625 C175.2964243 30.27851159 182.15373786 42.1243147 186 54 C186.24710378 54.73223156 186.49420755 55.46446312 186.74879932 56.21888351 C189.73601326 66.31090181 189.40010822 76.31258578 189.34057617 86.73144531 C189.33965587 88.84550332 189.34005985 90.95956225 189.34167194 93.07361984 C189.34234588 98.70639622 189.32502905 104.33897923 189.30384064 109.97171021 C189.28668493 115.26809257 189.28594744 120.56442923 189.28381348 125.86083984 C189.26810644 141.32391858 189.2262227 156.78696177 189.1875 172.25 C189.125625 206.8175 189.06375 241.385 189 277 C75.48 277 -38.04 277 -155 277 C-154.84171248 367.06633212 -154.84171248 367.06633212 -154.63964844 457.13256836 C-154.62158203 474.57531738 -154.62158203 474.57531738 -154.6182251 482.74806213 C-154.61450732 488.44071618 -154.59988744 494.13321172 -154.57769775 499.82582092 C-154.5520981 506.4030457 -154.54068824 512.98011942 -154.5462202 519.5573943 C-154.54861296 522.91657445 -154.5427414 526.27514949 -154.52313948 529.63431156 C-154.4298314 546.41193387 -154.46914998 563.22169036 -162.6875 578.375 C-163.0270874 579.02654053 -163.3666748 579.67808105 -163.71655273 580.34936523 C-167.06083634 586.5316842 -171.24366994 591.83424226 -176 597 C-176.53882813 597.63035156 -177.07765625 598.26070312 -177.6328125 598.91015625 C-188.92712153 611.36794937 -207.58210255 619.90600638 -224.2001822 621.16694427 C-230.3821891 621.43610792 -236.56696594 621.37625348 -242.75317383 621.34057617 C-244.82403043 621.33972854 -246.89488794 621.34020769 -248.96574402 621.34190369 C-254.55165318 621.34275975 -260.13736666 621.32519726 -265.7232306 621.30418181 C-271.57415906 621.28534984 -277.42509266 621.28365945 -283.27604675 621.28010559 C-294.33960497 621.27080422 -305.40307361 621.24621636 -316.46659249 621.21605712 C-331.42806266 621.1761627 -346.38955755 621.16004281 -361.35106754 621.14255047 C-384.90077872 621.11439384 -408.4503009 621.05461152 -432 621 C-432 578.76 -432 536.52 -432 493 C-422.595 492.505 -422.595 492.505 -413 492 C-391.336801 487.50689206 -372.14788979 478.75846147 -359.42919922 459.9375 C-349.3676074 444.47222926 -344.85902626 429.17445957 -344.84178162 410.79408264 C-344.83685196 409.67598709 -344.8319223 408.55789154 -344.82684326 407.40591431 C-344.81148224 403.65220288 -344.80311033 399.89850832 -344.79467773 396.14477539 C-344.78550308 393.41055906 -344.77485849 390.67634891 -344.76427555 387.94213772 C-344.73965243 381.36127224 -344.72003936 374.7804014 -344.70219031 368.19951444 C-344.681321 360.58510083 -344.65419731 352.9707179 -344.6270752 345.35632324 C-344.5585697 325.25839957 -344.49855399 305.16044769 -344.4375 285.0625 C-344.293125 240.161875 -344.14875 195.26125 -344 149 C-230.48 149 -116.96 149 0 149 C0 99.83 0 50.66 0 0 Z " fill="#FE9015" transform="translate(1212,635)"/>
<path d="M0 0 C2.0807087 0.00084762 4.16141829 0.0003685 6.24212646 -0.00132751 C11.85489389 -0.00218362 17.46746658 0.01537957 23.08018899 0.03639436 C28.95914472 0.05522562 34.83810556 0.05691667 40.71708679 0.06047058 C51.83376876 0.06977216 62.95036157 0.09436031 74.06700438 0.12451905 C89.10022545 0.16441263 104.13347113 0.18053319 119.16673183 0.1980257 C142.82956435 0.22618281 166.49220879 0.285965 190.1550293 0.34057617 C190.1550293 42.58057617 190.1550293 84.82057617 190.1550293 128.34057617 C183.2250293 128.67057617 176.2950293 129.00057617 169.1550293 129.34057617 C154.43497316 132.2845874 140.37651099 138.14718344 129.1550293 148.34057617 C128.42155273 148.9825293 127.68807617 149.62448242 126.93237305 150.28588867 C112.75214528 163.46887915 103.47882328 182.85642431 102.77026844 202.25059223 C102.75069847 204.29427717 102.74673529 206.33815599 102.75630188 208.38191223 C102.74966019 209.51736481 102.74301849 210.65281738 102.73617554 211.82267761 C102.71764531 215.5993261 102.72016505 219.37565506 102.72265625 223.15234375 C102.71519167 225.91733659 102.70325981 228.68230617 102.69152355 231.44728374 C102.66593052 238.07974887 102.65546029 244.7121496 102.65044097 251.34465874 C102.64396448 259.02544357 102.61839629 266.70608875 102.59289551 274.38684082 C102.53497811 294.64221291 102.50281491 314.89765202 102.4675293 335.15307617 C102.3644043 380.42495117 102.2612793 425.69682617 102.1550293 472.34057617 C-11.3649707 472.34057617 -124.8849707 472.34057617 -241.8449707 472.34057617 C-241.8449707 521.51057617 -241.8449707 570.68057617 -241.8449707 621.34057617 C-261.4593457 621.42307617 -281.0737207 621.50557617 -301.2824707 621.59057617 C-307.44475342 621.62699219 -313.60703613 621.6634082 -319.95605469 621.70092773 C-327.55993652 621.71899414 -327.55993652 621.71899414 -331.13490295 621.72235107 C-333.59835207 621.72843898 -336.06179029 621.74239251 -338.52516174 621.76287842 C-372.80403041 622.03336178 -372.80403041 622.03336178 -388.2824707 613.59057617 C-389.26473633 613.07624023 -389.26473633 613.07624023 -390.2668457 612.55151367 C-396.00673664 609.44948189 -401.02960926 605.74667543 -405.8449707 601.34057617 C-406.52688477 600.75018555 -407.20879883 600.15979492 -407.91137695 599.55151367 C-421.074747 587.44430443 -430.33841941 568.65791079 -431.11339378 550.79175377 C-431.25078373 545.35972464 -431.21665059 539.92877991 -431.18554688 534.49560547 C-431.18462639 532.38142571 -431.18503087 530.26724503 -431.18664265 528.15306568 C-431.18731605 522.52449259 -431.17001052 516.89611336 -431.14881134 511.26758575 C-431.13164431 505.97342868 -431.13091753 500.6793172 -431.12878418 495.38513184 C-431.1130827 479.93275457 -431.07119894 464.48041288 -431.0324707 449.02807617 C-430.9705957 414.48120117 -430.9087207 379.93432617 -430.8449707 344.34057617 C-317.3249707 344.34057617 -203.8049707 344.34057617 -86.8449707 344.34057617 C-87.00327199 253.90009878 -87.00327199 253.90009878 -87.20532227 163.4597168 C-87.22338867 145.94897461 -87.22338867 145.94897461 -87.22674561 137.74572754 C-87.23046507 132.02886325 -87.2450922 126.31215659 -87.26727295 120.59533691 C-87.29285707 113.99149718 -87.30428603 107.38780781 -87.2987505 100.78391823 C-87.29635584 97.41052695 -87.30224766 94.03773832 -87.32183123 90.66436481 C-87.4146711 73.88580702 -87.21944982 58.04056642 -79.0324707 42.90307617 C-78.68555176 42.23969238 -78.33863281 41.57630859 -77.98120117 40.89282227 C-75.12665317 35.57327892 -71.92546633 30.80729155 -67.8449707 26.34057617 C-67.09473633 25.51041992 -66.34450195 24.68026367 -65.5715332 23.82495117 C-47.30316967 4.57689622 -25.38512265 -0.14569085 0 0 Z " fill="#00D4BE" transform="translate(677.844970703125,162.659423828125)"/>
<path d="M0 0 C1.88078247 0.01061211 1.88078247 0.01061211 3.79956055 0.0214386 C7.10771414 0.04458092 10.41461431 0.08937386 13.72235107 0.1449585 C17.10771188 0.19642014 20.49326279 0.21928494 23.87890625 0.24414062 C30.50359287 0.29485011 37.12520323 0.3927313 43.75 0.48828125 C43.75 11.04828125 43.75 21.60828125 43.75 32.48828125 C59.26 32.48828125 74.77 32.48828125 90.75 32.48828125 C90.75 50.30828125 90.75 68.12828125 90.75 86.48828125 C99 86.48828125 107.25 86.48828125 115.75 86.48828125 C122.09364884 90.11322344 126.03961293 92.44016791 128.87890625 99.16015625 C129.92811168 103.16877969 129.9717845 106.74621756 129.875 110.86328125 C129.86597656 111.59933594 129.85695313 112.33539062 129.84765625 113.09375 C129.82430144 114.89207005 129.78843836 116.69022036 129.75 118.48828125 C131.19451538 118.45686035 131.19451538 118.45686035 132.66821289 118.42480469 C136.26685512 118.35199183 139.86543323 118.30633328 143.46459961 118.26855469 C145.01744565 118.24853255 146.57021719 118.22130608 148.12280273 118.18652344 C150.36460832 118.13758515 152.60541093 118.11521957 154.84765625 118.09765625 C155.53336197 118.07701111 156.21906769 118.05636597 156.92555237 118.03509521 C162.80583085 118.03240407 166.91839757 119.83313721 171.21839905 123.86517334 C177.43548219 130.79460927 177.02457189 138.0926708 176.9453125 146.88671875 C176.94329834 147.94221924 176.94128418 148.99771973 176.93920898 150.08520508 C176.92878005 154.01127496 176.90085754 157.93728267 176.875 161.86328125 C176.83375 170.64953125 176.7925 179.43578125 176.75 188.48828125 C148.37 188.48828125 119.99 188.48828125 90.75 188.48828125 C90.8685685 210.83604726 90.8685685 210.83604726 91.02026367 233.18359375 C91.03381348 237.52734375 91.03381348 237.52734375 91.03633118 239.56738281 C91.04090734 240.97789355 91.05139459 242.3883933 91.06672668 243.79882812 C91.24635745 261.20915721 91.24635745 261.20915721 85.91796875 267.73046875 C85.26441406 268.26929688 84.61085938 268.808125 83.9375 269.36328125 C83.29167969 269.91757813 82.64585937 270.471875 81.98046875 271.04296875 C75.56469856 275.20029795 68.94186352 274.75103192 61.5703125 274.68359375 C60.4024118 274.68076385 59.23451111 274.67793396 58.03121948 274.67501831 C54.31237409 274.66385098 50.59377223 274.63875229 46.875 274.61328125 C44.34896182 274.60324701 41.82291985 274.59412194 39.296875 274.5859375 C33.11441471 274.56562718 26.932479 274.52647089 20.75 274.48828125 C20.75 263.92828125 20.75 253.36828125 20.75 242.48828125 C5.24 242.48828125 -10.27 242.48828125 -26.25 242.48828125 C-26.25 224.66828125 -26.25 206.84828125 -26.25 188.48828125 C-33.84 188.48828125 -41.43 188.48828125 -49.25 188.48828125 C-58.27814513 185.10272682 -58.27814513 185.10272682 -61.1875 181.48828125 C-61.75339844 180.80765625 -62.31929687 180.12703125 -62.90234375 179.42578125 C-65.01718235 176.38531764 -65.3731796 173.85660555 -65.34765625 170.2578125 C-65.34443359 169.45537109 -65.34121094 168.65292969 -65.33789062 167.82617188 C-65.32532227 166.57610352 -65.32532227 166.57610352 -65.3125 165.30078125 C-65.30798828 164.45580078 -65.30347656 163.61082031 -65.29882812 162.74023438 C-65.28705403 160.6562197 -65.2691189 158.57224148 -65.25 156.48828125 C-66.59578125 156.51184692 -66.59578125 156.51184692 -67.96875 156.53588867 C-71.33095196 156.58733766 -74.6927292 156.62478545 -78.05517578 156.65307617 C-79.50413661 156.66806542 -80.95305283 156.68846396 -82.40185547 156.71459961 C-100.09234887 157.02549388 -100.09234887 157.02549388 -106.52734375 151.55078125 C-107.07519531 150.87015625 -107.62304688 150.18953125 -108.1875 149.48828125 C-108.75339844 148.80765625 -109.31929687 148.12703125 -109.90234375 147.42578125 C-112.29781351 143.98185951 -112.37267197 141.07730888 -112.36352539 137.00708008 C-112.36340454 135.8704895 -112.36328369 134.73389893 -112.36315918 133.56286621 C-112.35804321 132.36907349 -112.35292725 131.17528076 -112.34765625 129.9453125 C-112.34664917 128.84747437 -112.34564209 127.74963623 -112.34460449 126.61853027 C-112.33936752 122.51260333 -112.32540628 118.40669125 -112.3125 114.30078125 C-112.291875 105.12265625 -112.27125 95.94453125 -112.25 86.48828125 C-83.87 86.48828125 -55.49 86.48828125 -26.25 86.48828125 C-26.44764517 62.82393119 -26.44764517 62.82393119 -26.70043945 39.16015625 C-26.72302246 34.5625 -26.72302246 34.5625 -26.72721863 32.40380859 C-26.73485019 30.90991754 -26.75233931 29.41605552 -26.77787781 27.92236328 C-27.03188581 12.27097295 -27.03188581 12.27097295 -22.8256073 7.01078796 C-15.75362248 0.1771408 -9.66219599 -0.20683834 0 0 Z " fill="#E59726" transform="translate(1236.25,1303.51171875)"/>
<path d="M0 0 C62.37 0 124.74 0 189 0 C189 71.28 189 142.56 189 216 C126.63 216 64.26 216 0 216 C0 144.72 0 73.44 0 0 Z " fill="#00D5BF" transform="translate(591,912)"/>
<path d="M0 0 C62.37 0 124.74 0 189 0 C189 71.28 189 142.56 189 216 C126.63 216 64.26 216 0 216 C0 144.72 0 73.44 0 0 Z " fill="#FF9015" transform="translate(868,291)"/>
<path d="M0 0 C14.19 -0.0825 28.38 -0.165 43 -0.25 C47.44855469 -0.28641602 51.89710937 -0.32283203 56.48046875 -0.36035156 C61.99414062 -0.37841797 61.99414062 -0.37841797 64.59106445 -0.3817749 C66.37040227 -0.38783988 68.14972569 -0.40174342 69.92895508 -0.42230225 C84.81272246 -0.58539494 98.97660738 0.54561839 112.375 7.75 C113.03435547 8.09289062 113.69371094 8.43578125 114.37304688 8.7890625 C120.14028053 11.88450231 125.16858911 15.57921535 130 20 C130.68191406 20.59039063 131.36382813 21.18078125 132.06640625 21.7890625 C144.98675358 33.67274791 150.84283071 49.37132286 155 66 C155 86.46 155 106.92 155 128 C103.85 128 52.7 128 0 128 C0 85.76 0 43.52 0 0 Z " fill="#00D5BF" transform="translate(1057,507)"/>
<path d="M0 0 C51.15 0 102.3 0 155 0 C155 42.24 155 84.48 155 128 C140.995625 128.0825 126.99125 128.165 112.5625 128.25 C105.98163452 128.30462402 105.98163452 128.30462402 99.26782227 128.36035156 C93.82214355 128.37841797 93.82214355 128.37841797 91.25572205 128.3817749 C89.50059425 128.38783229 87.74548081 128.40171902 85.99046326 128.42230225 C71.02786674 128.58868816 55.99272415 127.57557681 42.5625 120.25 C41.90765625 119.90710938 41.2528125 119.56421875 40.578125 119.2109375 C34.83823407 116.10890571 29.81536145 112.40609926 25 108 C23.97712891 107.11441406 23.97712891 107.11441406 22.93359375 106.2109375 C10.12919413 94.43389675 3.82344904 78.56827916 0 62 C0 41.54 0 21.08 0 0 Z " fill="#FF9015" transform="translate(436,784)"/>
<path d="M0 0 C14.52 0 29.04 0 44 0 C47.74897591 12.02501707 51.45770173 24.04946416 54.9453125 36.15234375 C55.19353256 37.0136792 55.44175262 37.87501465 55.69749451 38.76245117 C56.93942225 43.07840575 58.1752638 47.39603609 59.40551758 51.71533203 C59.8627686 53.31153042 60.32004289 54.90772214 60.77734375 56.50390625 C60.98743073 57.24752914 61.1975177 57.99115204 61.41397095 58.75730896 C62.18188083 62.15464589 62.18188083 62.15464589 64 65 C70.6 43.55 77.2 22.1 84 0 C98.52 0 113.04 0 128 0 C128 38.94 128 77.88 128 118 C110 118 110 118 100 117 C99.67 87.96 99.34 58.92 99 29 C91.98441411 51.97443496 91.98441411 51.97443496 84.9699707 74.94921875 C83.59606934 79.44726563 83.59606934 79.44726563 82.94767761 81.56958008 C82.50604095 83.01548569 82.06460271 84.46145191 81.62333679 85.9074707 C78.45641375 96.28470496 75.24552643 106.64705201 72 117 C65.07 117 58.14 117 51 117 C42.42 88.29 33.84 59.58 25 30 C24.67 58.71 24.34 87.42 24 117 C16.08 117 8.16 117 0 117 C0 78.39 0 39.78 0 0 Z " fill="#00D5BF" transform="translate(258,1360)"/>
<path d="M0 0 C5.465625 -0.0825 10.93125 -0.165 16.5625 -0.25 C18.27381104 -0.28641602 19.98512207 -0.32283203 21.74829102 -0.36035156 C23.12515005 -0.37204866 24.50202307 -0.38223806 25.87890625 -0.390625 C26.92637024 -0.4213208 26.92637024 -0.4213208 27.99499512 -0.45263672 C33.97315209 -0.45682824 38.09312617 1.2726882 42.46754456 5.37689209 C48.68669323 12.30422628 48.27456334 19.60533853 48.1953125 28.3984375 C48.19329834 29.45393799 48.19128418 30.50943848 48.18920898 31.59692383 C48.17878005 35.52299371 48.15085754 39.44900142 48.125 43.375 C48.08375 52.16125 48.0425 60.9475 48 70 C19.62 70 -8.76 70 -38 70 C-37.8814315 92.34776601 -37.8814315 92.34776601 -37.72973633 114.6953125 C-37.71618652 119.0390625 -37.71618652 119.0390625 -37.71366882 121.07910156 C-37.70909266 122.4896123 -37.69860541 123.90011205 -37.68327332 125.31054688 C-37.50364255 142.72087596 -37.50364255 142.72087596 -42.83203125 149.2421875 C-43.48558594 149.78101563 -44.13914062 150.31984375 -44.8125 150.875 C-45.45832031 151.42929688 -46.10414062 151.98359375 -46.76953125 152.5546875 C-53.18530144 156.7120167 -59.80813648 156.26275067 -67.1796875 156.1953125 C-68.3475882 156.1924826 -69.51548889 156.18965271 -70.71878052 156.18673706 C-74.43762591 156.17556973 -78.15622777 156.15047104 -81.875 156.125 C-84.40103818 156.11496576 -86.92708015 156.10584069 -89.453125 156.09765625 C-95.63558529 156.07734593 -101.817521 156.03818964 -108 156 C-108 145.11 -108 134.22 -108 123 C-102.555 122.01 -102.555 122.01 -97 121 C-92.40515835 119.04474824 -90.49435327 116.27603418 -88 112 C-86.83808371 108.51425112 -86.83961986 105.72888273 -86.79467773 102.05004883 C-86.78464501 101.33600986 -86.77461229 100.62197088 -86.76427555 99.88629436 C-86.73291097 97.57657292 -86.70812787 95.2668343 -86.68359375 92.95703125 C-86.66518842 91.53038984 -86.64635163 90.10375393 -86.6270752 88.67712402 C-86.5586519 83.38898112 -86.4985835 78.10073278 -86.4375 72.8125 C-86.293125 60.994375 -86.14875 49.17625 -86 37 C-57.62 37 -29.24 37 0 37 C0 24.79 0 12.58 0 0 Z " fill="#FE9015" transform="translate(1365,1422)"/>
<path d="M0 0 C1.88078247 0.01061211 1.88078247 0.01061211 3.79956055 0.0214386 C7.10771414 0.04458092 10.41461431 0.08937386 13.72235107 0.1449585 C17.10771188 0.19642014 20.49326279 0.21928494 23.87890625 0.24414062 C30.50359287 0.29485011 37.12520323 0.3927313 43.75 0.48828125 C43.75 11.04828125 43.75 21.60828125 43.75 32.48828125 C39.295 32.98328125 39.295 32.98328125 34.75 33.48828125 C32.33040728 34.2867783 32.33040728 34.2867783 30.5 35.55078125 C29.89671875 35.91300781 29.2934375 36.27523438 28.671875 36.6484375 C23.29814567 41.79280033 21.32387215 46.52845772 21.09057617 54.00585938 C21.03271783 57.01103846 21.03374945 60.01391947 21.04296875 63.01953125 C21.03042488 64.44110212 21.01566116 65.86265517 20.99865723 67.28417969 C20.95144727 72.51870701 20.94699647 77.75354965 20.9375 82.98828125 C20.875625 94.70328125 20.81375 106.41828125 20.75 118.48828125 C-7.63 118.48828125 -36.01 118.48828125 -65.25 118.48828125 C-65.25 131.02828125 -65.25 143.56828125 -65.25 156.48828125 C-70.2 156.55015625 -75.15 156.61203125 -80.25 156.67578125 C-81.79558594 156.70309326 -83.34117188 156.73040527 -84.93359375 156.75854492 C-100.29689928 156.85146814 -100.29689928 156.85146814 -106.52734375 151.55078125 C-107.07519531 150.87015625 -107.62304688 150.18953125 -108.1875 149.48828125 C-108.75339844 148.80765625 -109.31929687 148.12703125 -109.90234375 147.42578125 C-112.29781351 143.98185951 -112.37267197 141.07730888 -112.36352539 137.00708008 C-112.36340454 135.8704895 -112.36328369 134.73389893 -112.36315918 133.56286621 C-112.35804321 132.36907349 -112.35292725 131.17528076 -112.34765625 129.9453125 C-112.34664917 128.84747437 -112.34564209 127.74963623 -112.34460449 126.61853027 C-112.33936752 122.51260333 -112.32540628 118.40669125 -112.3125 114.30078125 C-112.291875 105.12265625 -112.27125 95.94453125 -112.25 86.48828125 C-83.87 86.48828125 -55.49 86.48828125 -26.25 86.48828125 C-26.44764517 62.82393119 -26.44764517 62.82393119 -26.70043945 39.16015625 C-26.72302246 34.5625 -26.72302246 34.5625 -26.72721863 32.40380859 C-26.73485019 30.90991754 -26.75233931 29.41605552 -26.77787781 27.92236328 C-27.03188581 12.27097295 -27.03188581 12.27097295 -22.8256073 7.01078796 C-15.75362248 0.1771408 -9.66219599 -0.20683834 0 0 Z " fill="#00D4BE" transform="translate(1236.25,1303.51171875)"/>
<path d="M0 0 C10.621875 -0.0825 21.24375 -0.165 32.1875 -0.25 C37.17846802 -0.30462402 37.17846802 -0.30462402 42.27026367 -0.36035156 C44.94449216 -0.37204771 47.61872784 -0.38223733 50.29296875 -0.390625 C50.96886551 -0.40107849 51.64476227 -0.41153198 52.34114075 -0.42230225 C63.69773188 -0.5888342 74.68092877 0.28910115 83.9375 7.5 C91.60170549 15.00894534 95.10593522 24.5494399 95.3125 35.0625 C95.3234345 45.07485322 92.84766894 52.64643144 86.171875 60.1484375 C83.02817701 62.82849657 79.54060067 64.88568234 76 67 C77.45493288 70.52224747 78.91423228 74.04266854 80.375 77.5625 C81.04088135 79.16883301 81.04088135 79.16883301 81.72021484 80.80761719 C84.0570751 86.42101014 86.43042571 92.01366626 88.890625 97.57421875 C89.34904785 98.6118335 89.8074707 99.64944824 90.27978516 100.71850586 C91.16370144 102.71044569 92.05382158 104.69964631 92.95068359 106.68579102 C93.35109863 107.58869873 93.75151367 108.49160645 94.1640625 109.421875 C94.69700928 110.60668457 94.69700928 110.60668457 95.24072266 111.81542969 C96 114 96 114 96 118 C85.77 118 75.54 118 65 118 C62.73562785 112.3965086 60.47394904 106.79208102 58.21899414 101.18481445 C57.45134906 99.27826086 56.68215649 97.37232957 55.91137695 95.46704102 C54.80270901 92.72575052 53.69965525 89.9822583 52.59765625 87.23828125 C52.25283707 86.38913651 51.90801788 85.53999176 51.55274963 84.66511536 C51.23249313 83.86466293 50.91223663 83.06421051 50.58227539 82.23950195 C50.15924889 81.19026299 50.15924889 81.19026299 49.72767639 80.11982727 C49 78 49 78 48 73 C41.73 73 35.46 73 29 73 C29 87.85 29 102.7 29 118 C19.43 118 9.86 118 0 118 C0 79.06 0 40.12 0 0 Z M29 22 C29 31.57 29 41.14 29 51 C46.65817795 52.33446176 46.65817795 52.33446176 62 46 C64.64557141 42.647279 65.87073443 39.78995627 66.5625 35.5625 C65.83515507 30.95598213 64.06998391 27.51432369 61 24 C57.51757717 21.73975424 54.57589097 21.7674919 50.484375 21.8046875 C49.35741211 21.80968262 48.23044922 21.81467773 47.06933594 21.81982422 C45.64395508 21.83803223 44.21857422 21.85624023 42.75 21.875 C35.94375 21.936875 35.94375 21.936875 29 22 Z " fill="#00D5BF" transform="translate(887,1360)"/>
<path d="M0 0 C62.12628866 0 62.12628866 0 75 9 C76.010625 9.70125 77.02125 10.4025 78.0625 11.125 C89.55538881 21.34452897 96.20441167 35.7990081 97.12109375 51.00927734 C97.93589476 69.28118989 94.92723535 86.23464039 82.5625 100.5 C70.15359957 113.26403731 59.32507931 115.84410832 41 118 C27.47 118 13.94 118 0 118 C0 79.06 0 40.12 0 0 Z M28 23 C28 46.76 28 70.52 28 95 C43.15953837 95.3854658 43.15953837 95.3854658 56.25390625 88.828125 C65.01445328 79.65600865 68.36939337 68.28464989 68.21875 55.78125 C67.58215401 47.68738671 65.20089913 39.94202636 61 33 C60.46375 32.113125 59.9275 31.22625 59.375 30.3125 C49.98273393 21.16739883 41.87416979 23 28 23 Z " fill="#00D5BF" transform="translate(508,1360)"/>
<path d="M0 0 C28.05 0 56.1 0 85 0 C85 7.92 85 15.84 85 24 C66.52 24 48.04 24 29 24 C29 31.59 29 39.18 29 47 C43.52 47 58.04 47 73 47 C73 54.92 73 62.84 73 71 C58.48 71 43.96 71 29 71 C29 78.59 29 86.18 29 94 C47.48 94 65.96 94 85 94 C85 101.92 85 109.84 85 118 C56.95 118 28.9 118 0 118 C0 79.06 0 40.12 0 0 Z " fill="#00D5BF" transform="translate(1002,1360)"/>
<path d="M0 0 C28.05 0 56.1 0 85 0 C85 7.92 85 15.84 85 24 C66.52 24 48.04 24 29 24 C29 31.59 29 39.18 29 47 C43.52 47 58.04 47 73 47 C73 54.92 73 62.84 73 71 C58.48 71 43.96 71 29 71 C29 78.59 29 86.18 29 94 C47.48 94 65.96 94 85 94 C85 101.92 85 109.84 85 118 C56.95 118 28.9 118 0 118 C0 79.06 0 40.12 0 0 Z " fill="#00D5BF" transform="translate(408,1360)"/>
<path d="M0 0 C11.22 0 22.44 0 34 0 C39.95421078 18.54532554 45.83377553 37.11292213 51.67333984 55.69458008 C52.64379492 58.78242885 53.61517533 61.86998407 54.58740234 64.95727539 C63.84354984 94.35143027 63.84354984 94.35143027 67.6796875 106.98046875 C68.04648117 108.17425896 68.04648117 108.17425896 68.42068481 109.39216614 C69.31543346 112.36852724 70 114.87317958 70 118 C60.1 118 50.2 118 40 118 C38.15191455 113.07177213 36.37573364 108.25713917 34.8125 103.25 C34.46832031 102.16203125 34.12414062 101.0740625 33.76953125 99.953125 C33 97 33 97 33 93 C20.79 93.33 8.58 93.66 -4 94 C-6.26214978 101.52324789 -6.26214978 101.52324789 -8.51733398 109.04858398 C-8.79907471 109.98001221 -9.08081543 110.91144043 -9.37109375 111.87109375 C-9.65911865 112.82943115 -9.94714355 113.78776855 -10.24389648 114.77514648 C-11 117 -11 117 -12 118 C-13.85369611 118.08737645 -15.71067541 118.10698153 -17.56640625 118.09765625 C-18.69111328 118.09443359 -19.81582031 118.09121094 -20.97460938 118.08789062 C-22.15861328 118.07951172 -23.34261719 118.07113281 -24.5625 118.0625 C-25.75037109 118.05798828 -26.93824219 118.05347656 -28.16210938 118.04882812 C-31.10812468 118.03699674 -34.05402967 118.01967523 -37 118 C-34.67067833 109.03323088 -31.89894882 100.22215399 -29.0625 91.40625 C-28.57724014 89.89163576 -28.09221974 88.37694479 -27.60742188 86.86218262 C-26.33138154 82.87691512 -25.05269931 78.8925008 -23.77325439 74.9083252 C-21.51244043 67.86694882 -19.25598566 60.8241745 -17 53.78125 C-16.75391998 53.0133313 -16.50783997 52.2454126 -16.25430298 51.45422363 C-10.76649628 34.32451851 -5.37927475 17.16413325 0 0 Z M14 33 C10.90158817 42.10358116 7.8635253 51.21823397 5.125 60.4375 C4.91012939 61.15220459 4.69525879 61.86690918 4.47387695 62.60327148 C3.62313684 65.50759491 3 67.95612416 3 71 C10.59 71 18.18 71 26 71 C24.61736038 66.06892548 23.23156111 61.13897812 21.83740234 56.21118164 C21.3641357 54.534637 20.89276739 52.85755527 20.42333984 51.17993164 C19.74815588 48.76825447 19.06616233 46.358593 18.3828125 43.94921875 C18.07018967 42.82407112 18.07018967 42.82407112 17.75125122 41.67619324 C16.80884312 38.37634165 15.91981734 35.87972601 14 33 Z " fill="#00D5BF" transform="translate(806,1360)"/>
<path d="M0 0 C10.90381564 7.47036224 16.58982075 17.50258518 20.109375 30.02734375 C20.796875 33.71484375 20.796875 33.71484375 20.796875 40.71484375 C11.226875 41.37484375 1.656875 42.03484375 -8.203125 42.71484375 C-9.890625 35.08984375 -9.890625 35.08984375 -10.38549805 32.72412109 C-11.7709581 26.85918059 -14.07186707 22.89037637 -19.1484375 19.36328125 C-24.9024508 17.54737591 -31.28463198 17.82411485 -36.703125 20.33984375 C-44.38482716 27.6374608 -46.80575705 37.59667842 -47.31274414 47.9543457 C-48.21553355 67.73929191 -48.21553355 67.73929191 -41.203125 85.71484375 C-36.70360368 90.32973741 -33.3490331 91.88861972 -26.953125 92.02734375 C-21.50351734 91.97326826 -18.24957217 91.65753587 -14.203125 87.71484375 C-10.63653302 83.43493337 -9.23185085 79.07918786 -7.81640625 73.7890625 C-7.203125 71.71484375 -7.203125 71.71484375 -6.203125 70.71484375 C-3.54655622 70.61301361 -0.92211075 70.57412324 1.734375 70.58984375 C2.88667603 70.59274414 2.88667603 70.59274414 4.06225586 70.59570312 C9.69638182 70.63838141 15.20356962 71.00458275 20.796875 71.71484375 C20.52865454 84.10175213 16.41974294 94.71629069 7.796875 103.71484375 C-2.3726001 112.84286658 -13.07394252 116.07095726 -26.515625 116.02734375 C-27.49724609 116.04345703 -28.47886719 116.05957031 -29.49023438 116.07617188 C-43.41812857 116.08538954 -54.69021969 110.91683927 -64.77734375 101.41015625 C-79.18150175 85.40553625 -80.38340272 65.34011767 -79.42626953 44.76025391 C-78.32850109 29.77823696 -71.49380285 14.78490778 -60.203125 4.71484375 C-43.65827139 -7.29138973 -18.06463675 -10.53770477 0 0 Z " fill="#00D5BF" transform="translate(746.203125,1363.28515625)"/>
<path d="M0 0 C9.24 0 18.48 0 28 0 C28 38.94 28 77.88 28 118 C18.76 118 9.52 118 0 118 C0 79.06 0 40.12 0 0 Z " fill="#00D5BF" transform="translate(621,1360)"/>
<path d="M0 0 C15.84 0 31.68 0 48 0 C48 17.82 48 35.64 48 54 C32.16 54 16.32 54 0 54 C0 36.18 0 18.36 0 0 Z " fill="#FE9015" transform="translate(1279,1336)"/>
<path d="M0 0 C15.51 0 31.02 0 47 0 C47 18.15 47 36.3 47 55 C31.49 55 15.98 55 0 55 C0 36.85 0 18.7 0 0 Z " fill="#00D4BE" transform="translate(1210,1491)"/>
<path d="M0 0 C12.87 0 25.74 0 39 0 C39 10.89 39 21.78 39 33 C35.37 33.061875 31.74 33.12375 28 33.1875 C26.87207031 33.21481201 25.74414062 33.24212402 24.58203125 33.27026367 C17.38877848 33.32923516 11.42461614 32.91356708 5.72265625 28.0625 C5.17480469 27.381875 4.62695312 26.70125 4.0625 26 C3.49660156 25.319375 2.93070313 24.63875 2.34765625 23.9375 C-2.65529314 16.74485393 0 9.38061949 0 0 Z " fill="#FE9015" transform="translate(1171,1459)"/>
<path d="M0 0 C4.145625 -0.0825 8.29125 -0.165 12.5625 -0.25 C14.50298218 -0.30462402 14.50298218 -0.30462402 16.48266602 -0.36035156 C24.01599552 -0.43283801 28.83003923 0.0298821 34.44677734 5.37744141 C41.74164969 13.37650236 40 21.13033372 40 32 C26.8 32 13.6 32 0 32 C0 21.44 0 10.88 0 0 Z " fill="#01D4BE" transform="translate(1326,1390)"/>
</svg>
